# AST/ASF file generated using VICON BodyLanguage
# -----------------------------------------------
:version 1.10
:name VICON
:units
  mass 1.0
  length 0.45
  angle deg
:documentation
   .ast/.asf automatically generated from VICON data using
   VICON BodyBuilder and BodyLanguage model FoxedUp or BRILLIANT.MOD
:root
   order TX TY TZ RX RY RZ
   axis XYZ
   position 0 0 0  
   orientation 0 0 0 
:bonedata
  begin
     id 1 
     name lhipjoint
     direction 0.635376 -0.686425 0.353719 
     length 2.47244 
     axis 0 0 0  XYZ
  end
  begin
     id 2 
     name lfemur
     direction 0.34202 -0.939693 0  
     length 7.25268  
     axis 0 0 20  XYZ
    dof rx ry rz
    limits (-160.0 20.0)
           (-70.0 70.0)
           (-60.0 70.0)
  end
  begin
     id 3 
     name ltibia
     direction 0.34202 -0.939693 0   
     length 7.6767   
     axis 0 0 20   XYZ
    dof rx
    limits (-10.0 170.0)
  end
  begin
     id 4 
     name lfoot
     direction 0.0803374 -0.220725 0.972022   
     length 2.22945   
     axis -90 7.62852e-016 20   XYZ
    dof rx rz
    limits (-45.0 90.0)
           (-70.0 20.0)
  end
  begin
     id 5 
     name ltoes
     direction 1.53579e-011 -4.21994e-011 1   
     length 1.11848   
     axis -90 7.62852e-016 20   XYZ
    dof rx
    limits (-90.0 20.0)
  end
  begin
     id 6 
     name rhipjoint
     direction -0.664428 -0.664335 0.342336   
     length 2.55466  
     axis 0 0 0  XYZ 
  end
  begin
     id 7 
     name rfemur
     direction -0.34202 -0.939693 0   
     length 6.83172   
     axis 0 0 -20   XYZ
    dof rx ry rz
    limits (-160.0 20.0)
           (-70.0 70.0)
           (-70.0 60.0)
  end
  begin
     id 8 
     name rtibia
     direction -0.34202 -0.939693 0   
     length 7.62692   
     axis 0 0 -20   XYZ
    dof rx
    limits (-10.0 170.0)
 end
 begin
     id 9 
     name rfoot
     direction -0.0949276 -0.260811 0.960711   
     length 2.19684  
     axis -90 -7.62852e-016 -20   XYZ
    dof rx rz
    limits (-45.0 90.0)
           (-20.0 70.0)
  end
  begin
     id 10 
     name rtoes
     direction -1.53543e-011 -4.2183e-011 1   
     length 1.09848   
     axis -90 -7.62852e-016 -20   XYZ
    dof rx
    limits (-90.0 20.0)
  end
  begin
     id 11 
     name lowerback
     direction 0.0118782 0.999815 -0.0151555   
     length 2.15772   
     axis 0 0 0   XYZ
    dof rx ry rz
    limits (-20.0 45.0)
           (-30.0 30.0)
           (-30.0 30.0)
  end
  begin
     id 12 
     name upperback
     direction 0.00130825 0.999065 0.0432113   
     length 2.14863   
     axis 0 0 0   XYZ
    dof rx ry rz
    limits (-20.0 45.0)
           (-30.0 30.0)
           (-30.0 30.0)
  end
  begin
     id 13 
     name thorax
     direction -0.00347005 0.998773 0.0494011   
     length 2.14936   
     axis 0 0 0   XYZ
    dof rx ry rz
    limits (-20.0 45.0)
           (-30.0 30.0)
           (-30.0 30.0)
  end
  begin
     id 14 
     name lowerneck
     direction -0.0262159 0.99424 0.103921   
     length 1.69373   
     axis 0 0 0   XYZ
    dof rx ry rz
    limits (-20.0 45.0)
           (-30.0 30.0)
           (-30.0 30.0)
  end
  begin
     id 15 
     name upperneck
     direction 0.0353511 0.977394 -0.20845   
     length 1.70857   
     axis 0 0 0   XYZ
    dof rx ry rz
    limits (-20.0 45.0)
           (-30.0 30.0)
           (-30.0 30.0)
  end
  begin
     id 16
     name head
     direction 0.0139214 0.996594 -0.0812836  
     length 1.72777  
     axis 0 0 0   XYZ
    dof rx ry rz
    limits (-20.0 45.0)
           (-30.0 30.0)
           (-30.0 30.0)
  end
  begin
     id 17 
     name lclavicle
     direction 0.841247 0.537205 -0.0609508  
     length 3.55371  
     axis 0 0 0   XYZ
    dof ry rz
    limits (-20.0 10.0)
           (0.0 20.0)
  end
  begin
     id 18 
     name lhumerus
     direction 1 -4.48964e-011 1.60116e-018   
     length 4.91377   
     axis -180 -30 -90   XYZ
    dof rx ry rz
    limits (-60.0 90.0)
           (-90.0 90.0)
           (-90.0 90.0)
  end
  begin
     id 19
     name lradius
     direction 1 -4.48989e-011 -8.93847e-027   
     length 3.00291   
     axis -180 -30 -90   XYZ
    dof rx
    limits (-10.0 170.0)
  end
  begin
     id 20
     name lwrist
     direction 1 -4.48932e-011 -7.31504e-027   
     length 1.50145   
     axis 5.74121e-015 90 90   XYZ
    dof ry
    limits (-180.0 0.0)
 end
  begin
     id 21 
     name lhand
     direction 1 -4.48971e-011 -1.46301e-026   
     length 0.450922   
     axis 9.33524e-015 90 90   XYZ
    dof rx rz
    limits (-90.0 90.0)
           (-45.0 45.0)
  end
  begin
     id 22 
     name lfingers
     direction 1 -4.49039e-011 -2.92602e-026   
     length 0.363545   
     axis 1.86705e-014 90 90   XYZ
    dof rx
    limits (0.0 90.0)
  end
  begin
     id 23
     name lthumb
     direction 0.707107 -6.34941e-011 0.707107   
     length 0.52198   
     axis -90 45 2.85299e-015   XYZ
    dof rx rz
    limits (-45.0 45.0)
           (-45.0 45.0)
  end
  begin
     id 24 
     name rclavicle
     direction -0.825079 0.56158 -0.0622297   
     length 3.39909  
     axis 0 0 0   XYZ 
    dof ry rz
    limits (-10.0 20.0)
           (-20.0 0.0)
  end
  begin
     id 25 
     name rhumerus
     direction -1 -4.48965e-011 1.61691e-027  
     length 4.86725   
     axis -180 30 90   XYZ
    dof rx ry rz
    limits (-90.0 60.0)
           (-90.0 90.0)
           (-90.0 90.0)
  end
  begin
     id 26 
     name rradius
     direction -1 -4.48964e-011 -2.25776e-027   
     length 3.17144   
     axis -180 30 90   XYZ
    dof rx
    limits (-10.0 170.0)
  end
  begin
     id 27 
     name rwrist
     direction -1 -4.48961e-011 -7.31504e-027   
     length 1.58572   
     axis 5.74121e-015 -90 -90   XYZ
    dof ry
    limits (-180.0 0.0)
  end
  begin
     id 28
     name rhand
     direction -1 -4.49013e-011 -1.46301e-026   
     length 0.419368   
     axis 9.33524e-015 -90 -90   XYZ
    dof rx rz
    limits (-90.0 90.0)
           (-45.0 45.0)
  end
  begin
     id 29
     name rfingers
     direction -1 -4.489e-011 -2.92602e-026   
     length 0.338105   
     axis 1.86705e-014 -90 -90   XYZ
    dof rx
    limits (0.0 90.0)
  end
  begin
     id 30
     name rthumb
     direction -0.707107 -6.35022e-011 0.707107   
     length 0.485453   
     axis -90 -45 -2.85299e-015   XYZ
    dof rx rz
    limits (-45.0 45.0)
           (-45.0 45.0)
  end
:hierarchy
  begin
    root lhipjoint rhipjoint lowerback
    lhipjoint lfemur
    lfemur ltibia
    ltibia lfoot
    lfoot ltoes
    rhipjoint rfemur
    rfemur rtibia
    rtibia rfoot
    rfoot rtoes
    lowerback upperback
    upperback thorax
    thorax lowerneck lclavicle rclavicle
    lowerneck upperneck
    upperneck head
    lclavicle lhumerus
    lhumerus lradius
    lradius lwrist
    lwrist lhand lthumb
    lhand lfingers
    rclavicle rhumerus
    rhumerus rradius
    rradius rwrist
    rwrist rhand rthumb
    rhand rfingers
  end

#!OML:ASF H:\Swim 2\Project 1\Capture day 1\Session 1\male.ASF
:FULLY-SPECIFIED
:DEGREES
630
root 5.87468 14.9224 9.32953 99.1995 -33.0649 5.93646
lowerback -23.4534 5.70886 15.7176
upperback -3.31461 5.31354 -15.2648
thorax 12.7865 4.16616 -25.8549
lowerneck -10.8854 -2.96902 2.79268
upperneck -2.924 -4.46652 10.521
head 1.14209 -2.10596 2.70598
rclavicle 5.24792e-014 -8.0309e-014
rhumerus -17.293 28.1943 -85.6657
rradius 72.5778
rwrist -29.7257
rhand -25.98 12.3962
rfingers 7.12502
rthumb 0.565067 -17.5828
lclavicle 5.24792e-014 -8.0309e-014
lhumerus 406.411 -67.2012 -377.337
lradius 81.9087
lwrist 64.5434
lhand -42.4441 -33.9852
lfingers 7.12502
lthumb -15.3229 -4.57284
rfemur -63.4187 1.80442 28.1509
rtibia 60.0629
rfoot 0.219877 -1.09455
rtoes 0.0837878
lfemur -66.7762 10.916 -30.5478
ltibia 61.9754
lfoot 21.3227 -9.03632
ltoes 8.50547
631
root 5.86077 14.9326 9.30642 99.0937 -33.1985 5.81553
lowerback -23.3214 5.48467 15.6873
upperback -3.21131 5.001 -15.1564
thorax 12.6405 3.98683 -25.828
lowerneck -11.9726 -2.74372 2.16487
upperneck -1.69522 -4.26566 10.417
head 1.74701 -1.90885 2.78742
rclavicle 8.74653e-015 -1.17531e-013
rhumerus -17.7889 29.2829 -86.2327
rradius 69.7007
rwrist -31.2375
rhand -25.1472 12.1759
rfingers 7.12502
rthumb 1.36937 -17.7995
lclavicle 8.74653e-015 -1.17531e-013
lhumerus 402.639 -69.5324 -374.914
lradius 79.182
lwrist 65.1306
lhand -42.855 -34.7609
lfingers 7.12502
lthumb -15.7188 -5.3793
rfemur -63.9026 1.78247 28.1648
rtibia 61.6233
rfoot -0.0131406 -0.777607
rtoes 0.0466871
lfemur -67.1055 11.434 -30.8266
ltibia 63.303
lfoot 21.1634 -9.33256
ltoes 7.83013
632
root 5.84383 14.946 9.28905 98.9778 -33.3103 5.72745
lowerback -23.1946 5.26592 15.6777
upperback -3.10872 4.68899 -15.0343
thorax 12.4965 3.80783 -25.7908
lowerneck -13.0214 -2.53215 1.54353
upperneck -0.488277 -4.05874 10.32
head 2.35013 -1.71865 2.8832
rclavicle 3.18055e-015 8.23962e-014
rhumerus -18.2668 30.4176 -86.6116
rradius 66.8421
rwrist -33.0215
rhand -24.3046 11.9285
rfingers 7.12502
rthumb 2.18322 -18.04
lclavicle 3.18055e-015 8.23962e-014
lhumerus 398.086 -71.7324 -371.626
lradius 76.3118
lwrist 65.6305
lhand -43.1626 -35.4605
lfingers 7.12502
lthumb -16.015 -6.10248
rfemur -64.2969 1.6906 28.2364
rtibia 63.2016
rfoot -0.184631 -0.627543
rtoes -0.0535781
lfemur -67.3819 11.892 -31.0312
ltibia 64.6461
lfoot 21.1437 -9.63659
ltoes 7.34309
633
root 5.8238 14.9618 9.27693 98.8714 -33.3859 5.65641
lowerback -23.0801 5.06625 15.6967
upperback -3.02839 4.39288 -14.8957
thorax 12.341 3.63285 -25.735
lowerneck -13.9862 -2.35094 0.901311
upperneck 0.709017 -3.86598 10.2677
head 2.95021 -1.54488 3.00924
rclavicle -4.77083e-014 3.53837e-014
rhumerus -18.7631 31.5973 -86.8415
rradius 64.0073
rwrist -35.1183
rhand -23.5551 11.6892
rfingers 7.12502
rthumb 2.90707 -18.2707
lclavicle -4.77083e-014 3.53837e-014
lhumerus 392.665 -73.8272 -367.391
lradius 73.3332
lwrist 66.054
lhand -43.4301 -36.1729
lfingers 7.12502
lthumb -16.2725 -6.83576
rfemur -64.6092 1.54822 28.3739
rtibia 64.7888
rfoot -0.298498 -0.616379
rtoes -0.164784
lfemur -67.6172 12.3077 -31.1523
ltibia 66.0162
lfoot 21.2403 -9.94415
ltoes 7.05662
634
root 5.80111 14.98 9.2696 98.7772 -33.4491 5.6064
lowerback -22.9797 4.88169 15.7259
upperback -2.97781 4.11198 -14.747
thorax 12.1659 3.45897 -25.6572
lowerneck -14.9411 -2.17334 0.391245
upperneck 2.21867 -3.70254 10.3957
head 3.28891 -1.35673 2.86132
rclavicle -1.27222e-014 -2.127e-014
rhumerus -19.3094 32.8111 -86.9513
rradius 61.2319
rwrist -37.4488
rhand -22.9049 11.1103
rfingers 7.12502
rthumb 3.53495 -18.8402
lclavicle -1.27222e-014 -2.127e-014
lhumerus 386.169 -75.8152 -362.015
lradius 70.2723
lwrist 66.3889
lhand -43.7469 -36.9438
lfingers 7.12502
lthumb -16.5775 -7.63188
rfemur -64.8511 1.35257 28.5395
rtibia 66.3788
rfoot -0.346121 -0.697244
rtoes -0.278269
lfemur -67.8072 12.6722 -31.2184
ltibia 67.4189
lfoot 21.4021 -10.2014
ltoes 6.93979
635
root 5.77579 14.9999 9.26628 98.6976 -33.5127 5.56934
lowerback -22.8922 4.70804 15.7498
upperback -2.96346 3.84405 -14.5881
thorax 11.9611 3.28197 -25.5472
lowerneck -15.7377 -2.05142 -0.3018
upperneck 3.53404 -3.55645 10.4677
head 3.82283 -1.21005 3.00552
rclavicle -1.39149e-014 -4.94477e-014
rhumerus -19.9569 34.0495 -86.9963
rradius 58.5438
rwrist -39.8111
rhand -22.505 10.0301
rfingers 7.12502
rthumb 3.92113 -19.9135
lclavicle -1.39149e-014 -4.94477e-014
lhumerus 378.092 -77.6698 -354.987
lradius 67.135
lwrist 66.6338
lhand -44.1247 -37.7003
lfingers 7.12502
lthumb -16.9412 -8.4192
rfemur -65.0233 1.12437 28.7024
rtibia 67.9651
rfoot -0.324241 -0.81639
rtoes -0.385838
lfemur -67.9447 12.9932 -31.2451
ltibia 68.8585
lfoot 21.5881 -10.3741
ltoes 6.94187
636
root 5.74772 15.021 9.26653 98.6461 -33.5788 5.53285
lowerback -22.8231 4.52212 15.7828
upperback -2.95646 3.55144 -14.4099
thorax 11.7428 3.08842 -25.4215
lowerneck -16.576 -1.89689 -0.985059
upperneck 4.88059 -3.3499 10.4744
head 4.36905 -1.04168 3.13915
rclavicle -4.8901e-014 -1.32689e-014
rhumerus -20.6534 35.3389 -86.9392
rradius 55.9366
rwrist -42.1041
rhand -22.2003 8.75235
rfingers 7.12502
rthumb 4.21532 -21.1857
lclavicle -4.8901e-014 -1.32689e-014
lhumerus 367.608 -79.2197 -345.511
lradius 63.928
lwrist 66.7831
lhand -44.5885 -38.3368
lfingers 7.12502
lthumb -17.3877 -9.09447
rfemur -65.1305 0.89124 28.845
rtibia 69.5358
rfoot -0.225069 -0.930429
rtoes -0.540183
lfemur -68.0292 13.2608 -31.225
ltibia 70.3336
lfoot 21.7348 -10.3916
ltoes 6.94821
637
root 5.7177 15.0429 9.26872 98.6228 -33.6788 5.48954
lowerback -22.7632 4.32514 15.7863
upperback -2.96087 3.24907 -14.2289
thorax 11.5108 2.88475 -25.2715
lowerneck -17.4418 -1.71641 -1.65604
upperneck 6.24397 -3.0917 10.4573
head 4.9229 -0.856212 3.27516
rclavicle -7.15625e-015 -6.8531e-014
rhumerus -21.4079 36.5062 -86.7714
rradius 53.4086
rwrist -44.3424
rhand -21.6025 7.32151
rfingers 7.12502
rthumb 4.79259 -22.6043
lclavicle -7.15625e-015 -6.8531e-014
lhumerus 354.51 -80.3327 -333.381
lradius 60.6532
lwrist 66.8522
lhand -45.0665 -38.6705
lfingers 7.12502
lthumb -17.8477 -9.46953
rfemur -65.1799 0.66992 28.9229
rtibia 71.0897
rfoot -0.0444815 -1.01508
rtoes -0.75961
lfemur -68.0508 13.4839 -31.198
ltibia 71.8392
lfoot 21.8516 -10.2365
ltoes 7.06968
638
root 5.68569 15.0648 9.27254 98.6396 -33.8078 5.42309
lowerback -22.7165 4.12358 15.7607
upperback -2.97823 2.9456 -14.0452
thorax 11.2709 2.67627 -25.0944
lowerneck -18.3406 -1.51361 -2.30305
upperneck 7.63205 -2.78779 10.4101
head 5.48837 -0.657425 3.41022
rclavicle -1.03368e-014 1.33124e-013
rhumerus -22.1857 37.5353 -86.4717
rradius 50.9154
rwrist -46.5518
rhand -20.7158 6.05637
rfingers 7.12502
rthumb 5.64872 -23.8483
lclavicle -1.03368e-014 1.33124e-013
lhumerus 339.367 -80.8528 -319.179
lradius 57.3188
lwrist 66.835
lhand -45.4671 -38.4997
lfingers 7.12502
lthumb -18.2331 -9.33422
rfemur -65.169 0.484071 28.9379
rtibia 72.614
rfoot 0.223179 -1.06083
rtoes -1.03241
lfemur -68.0099 13.6771 -31.1611
ltibia 73.3651
lfoot 21.9349 -9.89891
ltoes 7.30453
639
root 5.65209 15.0864 9.27679 98.7127 -33.9674 5.32142
lowerback -22.6891 3.9209 15.6933
upperback -3.01205 2.64887 -13.8625
thorax 11.0271 2.46688 -24.8836
lowerneck -19.273 -1.296 -2.92188
upperneck 9.04514 -2.4506 10.353
head 6.06785 -0.450859 3.54992
rclavicle -3.71727e-014 8.66825e-014
rhumerus -22.9587 38.4078 -86.0296
rradius 48.4242
rwrist -48.6211
rhand -19.6361 5.08981
rfingers 7.12502
rthumb 6.69115 -24.7845
lclavicle -3.71727e-014 8.66825e-014
lhumerus 324.02 -80.6945 -304.761
lradius 53.9436
lwrist 66.771
lhand -45.7267 -37.811
lfingers 7.12502
lthumb -18.4828 -8.66911
rfemur -65.1109 0.35245 28.8912
rtibia 74.1029
rfoot 0.579537 -1.08382
rtoes -1.30407
lfemur -67.9232 13.8598 -31.1255
ltibia 74.9002
lfoot 22.018 -9.39396
ltoes 7.77814
640
root 5.61743 15.107 9.28153 98.8408 -34.1524 5.1919
lowerback -22.6926 3.72895 15.593
upperback -3.06408 2.37264 -13.6859
thorax 10.7924 2.2664 -24.6484
lowerneck -20.2023 -1.07835 -3.51682
upperneck 10.4614 -2.0993 10.3016
head 6.65112 -0.246902 3.69822
rclavicle -3.32964e-015 -4.79009e-014
rhumerus -23.7099 39.0309 -85.4127
rradius 45.9564
rwrist -50.3678
rhand -18.2773 4.27745
rfingers 7.12502
rthumb 8.00274 -25.551
lclavicle -3.32964e-015 -4.79009e-014
lhumerus 310.587 -79.9623 -292.282
lradius 50.5842
lwrist 66.6906
lhand -45.8239 -36.6441
lfingers 7.12502
lthumb -18.5763 -7.51112
rfemur -65.0071 0.261283 28.797
rtibia 75.5474
rfoot 1.01262 -1.09453
rtoes -1.60064
lfemur -67.7903 14.0346 -31.095
ltibia 76.4241
lfoot 22.1372 -8.77471
ltoes 8.59033
641
root 5.58173 15.1263 9.28629 99.0458 -34.3429 5.02301
lowerback -22.7439 3.55676 15.4752
upperback -3.13859 2.12312 -13.5116
thorax 10.5738 2.07916 -24.3922
lowerneck -21.1168 -0.877681 -4.11071
upperneck 11.87 -1.75674 10.2913
head 7.23606 -0.0548969 3.8682
rclavicle 4.16951e-014 3.22513e-014
rhumerus -24.3956 39.4474 -84.6008
rradius 43.4853
rwrist -51.6589
rhand -16.8194 3.64842
rfingers 7.12502
rthumb 9.40959 -26.1215
lclavicle 4.16951e-014 3.22513e-014
lhumerus 299.969 -78.804 -282.682
lradius 47.3027
lwrist 66.6264
lhand -45.7602 -35.124
lfingers 7.12502
lthumb -18.5151 -5.98509
rfemur -64.8693 0.222017 28.686
rtibia 76.9412
rfoot 1.49815 -1.12422
rtoes -1.81368
lfemur -67.6357 14.2227 -31.0595
ltibia 77.9169
lfoot 22.2861 -8.10834
ltoes 9.64806
642
root 5.5457 15.144 9.29135 99.3137 -34.5285 4.84798
lowerback -22.8554 3.40693 15.357
upperback -3.23215 1.89819 -13.3402
thorax 10.3809 1.90671 -24.1302
lowerneck -21.9797 -0.706898 -4.70982
upperneck 13.2271 -1.43792 10.3224
head 7.80388 0.116669 4.05805
rclavicle -1.98785e-015 8.92295e-014
rhumerus -24.979 39.6271 -83.5525
rradius 41.0259
rwrist -52.3924
rhand -15.3333 3.15918
rfingers 7.12502
rthumb 10.8433 -26.5409
lclavicle -1.98785e-015 8.92295e-014
lhumerus 292.098 -77.3876 -275.935
lradius 44.1696
lwrist 66.5666
lhand -45.5587 -33.3224
lfingers 7.12502
lthumb -18.3212 -4.16524
rfemur -64.706 0.196176 28.5817
rtibia 78.282
rfoot 2.01719 -1.22949
rtoes -1.95166
lfemur -67.4574 14.3902 -31.0047
ltibia 79.3514
lfoot 22.462 -7.41223
ltoes 10.9041
